<?xml version="1.0" encoding="utf-8"?>
<!-- Generator: Adobe Illustrator 24.0.0, SVG Export Plug-In . SVG Version: 6.00 Build 0)  -->
<svg version="1.1" id="Capa_1" xmlns="http://www.w3.org/2000/svg" xmlns:xlink="http://www.w3.org/1999/xlink" x="0px" y="0px"
	 viewBox="0 0 688.9 577.9" style="enable-background:new 0 0 688.9 577.9;" xml:space="preserve">
<style type="text/css">
	.st0{fill:#CCCCCC;}
	.st1{fill:#E6E6E6;}
	.st2{fill:#2F2E41;}
	.st3{fill:#6C63FF;}
	.st4{fill:#FFB9B9;}
	.st5{fill:#3F3D56;}
	.st6{fill:#FFFFFF;}
	.st7{fill:#007F03;}
	.st8{fill:#00FF15;}
	.st9{fill:#F8FFDF;}
	.st10{fill:#5F0020;}
</style>
<rect x="151.6" y="268" class="st0" width="110" height="123"/>
<path class="st1" d="M208,541.2l-1.9,25.8c-0.3,4.5,3.1,8.5,7.6,8.8c0.4,0,0.7,0,1.1,0l13.3-0.8c2.3-0.1,4.1-2.1,3.9-4.4
	c0-0.3-0.1-0.5-0.1-0.8l-7.4-29.5L208,541.2z"/>
<path class="st1" d="M319,556.5c15.6,3.7,26.8,8.8,34.1,15.9c2.6,2.5,6,3.9,9.6,4.1c4.6,0.2,8.4-0.3,11.2-1.5h0
	c1.5-0.6,2.5-2,2.6-3.7c0.2-1.6-0.5-3.2-1.9-4.2l-37-26.4l-15.7,6.3l-3.7,3.7c-1.4,1.4-1.4,3.7,0,5.1
	C318.4,556.1,318.7,556.3,319,556.5L319,556.5z"/>
<path class="st2" d="M270.9,134.7l-105.9-1c0.3-15.4,3.9-30.6,11.7-44.1c5.2-8.9,5-18.6,3.8-26.7c-1.9-12.6,2.5-25.5,12.4-33.5
	c7.6-6.1,17.1-9.3,26.8-8.9l2.1,0.1c13.6,0.6,26,8,32.9,19.8c3.4,6.2,4.8,13.3,4,20.3c-0.7,6.6,0.9,13.3,4.7,20
	C269.9,95.4,271.3,114.3,270.9,134.7z"/>
<path class="st3" d="M341.8,542.2l-20.8,5.4L219.8,327.2l6.3,215h-20.8c-22.2-101.2-62.3-217.9-44.3-254.8l107.5-6.3L341.8,542.2z"
	/>
<circle class="st4" cx="218.9" cy="69.7" r="28"/>
<path class="st4" d="M243.3,121.2l-46.1-2.7c4.5-10.4,6.3-20.3,4.5-29.8h34.3C236,95.9,239.6,108.5,243.3,121.2z"/>
<polygon class="st3" points="272.2,289.2 171,296.4 181.4,117.1 199,112.1 218.9,116.7 238.8,106.7 251.4,111.2 "/>
<path class="st1" d="M188.2,418.4l-69.1-15.8c20.6-68.1,57.6-224.1,45.6-279.6l36.1-16.3L188.2,418.4z"/>
<path class="st1" d="M154.8,221.5l-26.2-16.3l22.3-65.4c2.5-6.8,7.3-12.4,13.5-16l7.5-4.4l-4.5,65.9L154.8,221.5z"/>
<g>
	<path class="st1" d="M332.3,403.5c-21.8,12.6-76.3,19.7-100.3,10.8c-1.8-61.6-5.2-235.7,5.9-309.4l39.8,16.3L274,170
		C255,211.7,310.2,357.1,332.3,403.5z"/>
	<path class="st1" d="M332.3,403.5c-21.8,12.6-76.3,19.7-100.3,10.8c-1.8-61.6-5.2-235.7,5.9-309.4l39.8,16.3L274,170
		C255,211.7,310.2,357.1,332.3,403.5z"/>
</g>
<polygon class="st1" points="329.1,213.3 304.7,205.2 272.2,168.2 277.6,121.2 331.8,197.1 "/>
<path class="st4" d="M252.7,248.5c0.8,3.6,4.5,5.9,8.1,5.1l20.7-4.7l-3-13.2l-20.7,4.7C254.1,241.2,251.9,244.8,252.7,248.5
	L252.7,248.5z"/>
<path class="st2" d="M243.3,62.5c-15.6-6.4-30.9-6.9-46.1-0.9L190.9,39h57.8L243.3,62.5z"/>
<path class="st1" d="M271.3,233.2l11.7,21.7c19.8-5.5,36.9-22.9,53.3-43.4l-4.5-14.5l-28,7.2L271.3,233.2z"/>
<polygon class="st3" points="118.2,165.2 140.7,169.2 192.3,242.5 164.9,236.1 "/>
<path class="st5" d="M114.2,164.3c-1.1,0-1.9,0.9-1.9,1.9c0,0.4,0.1,0.7,0.3,1l48.2,73.1c0.3,0.4,0.7,0.7,1.2,0.8l22.4,5.3
	c1,0.2,2.1-0.4,2.3-1.4c0.1-0.5,0-1.1-0.3-1.5l-52.9-75.2c-0.3-0.4-0.7-0.7-1.2-0.8l-17.7-3.2C114.4,164.3,114.3,164.3,114.2,164.3z
	"/>
<path class="st4" d="M144.2,216.6l1.3,13.5l21.1-2.1c3.7-0.4,6.4-3.7,6.1-7.4c-0.4-3.7-3.7-6.4-7.4-6.1L144.2,216.6z"/>
<path class="st1" d="M125.9,215c0.1,9.6,7.8,17.3,17.4,17.3h3.5l2.5-21.1l-20.9-7.5L125.9,215z"/>
<rect x="441.5" y="0.5" class="st1" width="218.3" height="217"/>
<path class="st6" d="M454.6,205h194V12h-194V205z"/>
<rect x="484.6" y="40" class="st5" width="138" height="138"/>
<rect x="530.6" y="37" class="st1" width="40" height="6"/>
<path class="st7" d="M25.2,510.2c14.4,19.3,44.4,21.3,44.4,21.3s6.6-29.3-7.9-48.6s-44.4-21.3-44.4-21.3S10.8,490.9,25.2,510.2z"/>
<path class="st8" d="M98.6,517.5c-9.5,12.7-29.3,14.1-29.3,14.1s-4.3-19.3,5.2-32.1c9.5-12.7,29.3-14.1,29.3-14.1
	S108.1,504.8,98.6,517.5z"/>
<rect y="575.7" class="st5" width="519.6" height="2.2"/>
<g transform="translate(0.000000,1280.000000) scale(0.100000,-0.100000)">
	<path class="st9" d="M5705,12234.6c-1.5-0.2-7.4-0.7-13-1.1c-19.9-1.7-43-5.3-100.8-15.4c-32.4-5.7-48.2-8.1-53.1-8.1
		c-7.4,0-38.6,4.1-91.5,12.1c-45.2,6.8-64,8.9-87.4,9.6c-50.5,1.5-82.4-8.8-106.4-34c-28-29.3-39.8-76.5-38.4-152.3
		c1.7-84.7,14.1-151.3,50.3-271.3l7.3-24.4l-0.9-16.3c-3.5-62.6-2.3-151.1,3.3-231.7c8.8-128.8,27.4-245.9,44.7-282.2
		c3-6.3,5.4-9.3,15-19.3c5.7-5.9,13.6-6.7,21-2c10.7,6.8,22.1,32.4,35.8,80.4c21.4,75.2,42.2,189.3,51.4,282
		c2.1,21.9,7.4,34,20.5,47.4c30.1,30.8,83.6,30.3,112.7-1.1c5.7-6.3,8.6-10.5,12.6-18.4c4.6-9.3,6.4-15.9,7.4-27.6
		c9.8-111.7,43.5-241.5,83.8-322c14.2-28.4,23.8-39.8,35-41.8c6.6-1.2,14.4,3.5,19,11.4c14.5,24.7,35.6,132.4,49,250.2
		c10.2,88.9,15,172.4,14.6,252.7l-0.2,39.8l4.5,9.3c18.5,38.6,34.2,84.8,42.8,126c10,48.2,13.7,97.2,12.8,169.3
		c-0.4,36.2-1.3,48.5-4.7,67.9c-12.1,69.4-47.9,105-111.2,110.5C5732.1,12235,5711.6,12235.1,5705,12234.6z"/>
</g>
<polygon class="st10" points="95.6,576 39.6,576 33.6,528 101.6,528 "/>
</svg>
